801-27387840.VRO
Created: 25.02.2011
CRC32: FF924170
MD5: BAF889802A63526E8EF4B8DC49CEC992
SHA-1: 7F4543EE7B6D8A251CB8F90BC477A16965C73DAB

VHS Recorder Model: SAMSUNG VK-30R/BWX
VHS Recorder S/N: 62MF100720
Recording Device Model: PANASONIC DVD VIDEO RECORDER DMR-E55
Recording Device S/N: VV4EA002574
Recording Device Quality Settings: Custom
Medium Used: DVD-RAM 4.7 GB Single Sided Non-Cartridge Disc
Tape Info: E22DAP E-120

General
Complete name                    : Y:\Core\Video\Restored from VHS Tapes\801-27387840.VRO
Format                           : MPEG-PS
File size                        : 3.58 GiB
Duration                         : 1h 34mn
Overall bit rate                 : 5 414 Kbps

Video
ID                               : 224 (0xE0)
Format                           : MPEG Video
Format version                   : Version 2
Format profile                   : Main@Main
Format settings, BVOP            : Yes
Format settings, Matrix          : Default
Duration                         : 1h 34mn
Bit rate mode                    : Variable
Bit rate                         : 5 050 Kbps
Nominal bit rate                 : 9 579 Kbps
Width                            : 704 pixels
Height                           : 576 pixels
Display aspect ratio             : 4:3
Frame rate                       : 25.000 fps
Standard                         : PAL
Color space                      : YUV
Chroma subsampling               : 4:2:0
Bit depth                        : 8 bits
Scan type                        : Interlaced
Scan order                       : Top Field First
Bits/(Pixel*Frame)               : 0.498
Stream size                      : 3.34 GiB (93%)

Audio
ID                               : 128 (0x80)
Format                           : AC-3
Format/Info                      : Audio Coding 3
Mode extension                   : CM (complete main)
Duration                         : 1h 34mn
Bit rate mode                    : Constant
Bit rate                         : 256 Kbps
Channel(s)                       : 2 channels
Channel positions                : Front: L R
Sampling rate                    : 48.0 KHz
Bit depth                        : 16 bits
Stream size                      : 174 MiB (5%)